<svg width="94" height="95" viewBox="0 0 94 95" fill="none" xmlns="http://www.w3.org/2000/svg">
<path d="M40.0984 91.204C39.2413 92.0611 38.3333 92.6936 37.3745 93.1013C36.4282 93.4966 35.4569 93.6806 34.4608 93.6534C33.4902 93.6269 32.5133 93.3705 31.5301 92.8843C30.56 92.4111 29.6223 91.7219 28.717 90.8166L22.2619 84.3615C21.4354 83.5349 20.6406 82.9389 19.8777 82.5735C19.1016 82.195 18.3502 82.015 17.6232 82.0334C16.8963 82.0518 16.187 82.2494 15.4954 82.6261C14.8162 82.9904 14.1471 83.489 13.488 84.1219L9.65036 80.2842C10.2825 79.5996 10.7808 78.9177 11.1451 78.2385C11.5087 77.5338 11.6935 76.8241 11.6995 76.1096C11.7179 75.3827 11.5444 74.6378 11.179 73.8749C10.8005 73.0988 10.198 72.2975 9.37139 71.4709L2.91628 65.0158C1.00074 63.1003 0.0288862 61.1595 0.000717036 59.1934C-0.0281497 57.2017 0.814575 55.3488 2.52889 53.6345L6.19977 49.9636L9.93901 53.7028L8.85824 54.7836C7.72779 55.914 7.24902 57.0751 7.42194 58.2666C7.60729 59.4458 8.38877 60.7242 9.76638 62.1018L15.6901 68.0255C16.3593 68.6947 16.8703 69.4169 17.2233 70.1922C17.5756 70.942 17.7877 71.7008 17.8597 72.4685C17.9317 73.2361 17.876 74.0003 17.6926 74.761C17.4961 75.5086 17.196 76.2023 16.7923 76.8422L16.871 76.9209C17.5364 76.5179 18.2495 76.2247 19.0102 76.0413C19.7577 75.8448 20.5219 75.7891 21.3027 75.8742C22.0704 75.9462 22.8291 76.1583 23.579 76.5106C24.3156 76.8498 25.0185 77.3539 25.6877 78.0231L31.6114 83.9468C33.0022 85.3376 34.2805 86.119 35.4466 86.2913C36.6381 86.4642 37.7992 85.9854 38.9296 84.855L40.0104 83.7742L43.7693 87.5331L40.0984 91.204Z" fill="url(#paint0_linear_9_89)"/>
<path d="M2.52889 40.6358C1.67173 39.7787 1.03929 38.8707 0.631574 37.912C0.236278 36.9656 0.0522318 35.9944 0.0794366 34.9982C0.105944 34.0276 0.362336 33.0507 0.848612 32.0675C1.32177 31.0974 2.01099 30.1598 2.91628 29.2545L9.37139 22.7994C10.198 21.9728 10.7939 21.178 11.1594 20.4151C11.5379 19.6391 11.7179 18.8876 11.6995 18.1607C11.6811 17.4337 11.4835 16.7245 11.1067 16.0329C10.7424 15.3537 10.2439 14.6845 9.611 14.0254L13.4486 10.1878C14.1333 10.8199 14.8152 11.3182 15.4944 11.6825C16.1991 12.0461 16.9087 12.2309 17.6232 12.2369C18.3502 12.2553 19.0951 12.0819 19.858 11.7165C20.6341 11.3379 21.4354 10.7354 22.2619 9.90882L28.717 3.45371C30.6326 1.53816 32.5734 0.566309 34.5395 0.53814C36.5311 0.509273 38.3841 1.352 40.0984 3.06632L43.7693 6.73719L40.0301 10.4764L38.9493 9.39567C37.8188 8.26521 36.6578 7.78644 35.4662 7.95936C34.2871 8.14471 33.0087 8.92619 31.6311 10.3038L25.7074 16.2275C25.0382 16.8967 24.316 17.4077 23.5406 17.7607C22.7908 18.113 22.0321 18.3251 21.2644 18.3972C20.4967 18.4692 19.7325 18.4135 18.9718 18.2301C18.2243 18.0335 17.5306 17.7334 16.8907 17.3297L16.812 17.4085C17.215 18.0738 17.5082 18.7869 17.6916 19.5476C17.8881 20.2952 17.9438 21.0594 17.8587 21.8401C17.7867 22.6078 17.5745 23.3666 17.2222 24.1164C16.8831 24.8531 16.3789 25.556 15.7098 26.2251L9.78606 32.1488C8.39532 33.5396 7.61384 34.818 7.44162 35.984C7.2687 37.1756 7.74747 38.3366 8.87792 39.467L9.95869 40.5478L6.19976 44.3067L2.52889 40.6358Z" fill="url(#paint1_linear_9_89)"/>
<path d="M53.7113 2.45208C54.5684 1.59492 55.4764 0.962484 56.4351 0.554765C57.3815 0.159469 58.3527 -0.0245773 59.3489 0.00262757C60.3195 0.0291348 61.2964 0.285527 62.2796 0.771803C63.2497 1.24496 64.1873 1.93418 65.0926 2.83947L71.5477 9.29458C72.3743 10.1212 73.1691 10.7171 73.932 11.0825C74.708 11.4611 75.4595 11.6411 76.1865 11.6227C76.9134 11.6042 77.6226 11.4067 78.3143 11.0299C78.9934 10.6656 79.6626 10.1671 80.3217 9.5342L84.1593 13.3718C83.5272 14.0565 83.0289 14.7384 82.6646 15.4176C82.301 16.1223 82.1162 16.8319 82.1102 17.5464C82.0918 18.2733 82.2652 19.0183 82.6306 19.7812C83.0092 20.5572 83.6117 21.3586 84.4383 22.1851L90.8934 28.6402C92.8089 30.5558 93.7808 32.4966 93.809 34.4627C93.8378 36.4543 92.9951 38.3073 91.2808 40.0216L87.6099 43.6925L83.8707 39.9532L84.9514 38.8725C86.0819 37.742 86.5607 36.581 86.3877 35.3894C86.2024 34.2103 85.4209 32.9319 84.0433 31.5543L78.1196 25.6305C77.4504 24.9614 76.9394 24.2392 76.5864 23.4638C76.2341 22.714 76.022 21.9553 75.9499 21.1876C75.8779 20.4199 75.9336 19.6557 76.1171 18.895C76.3136 18.1475 76.6137 17.4537 77.0174 16.8139L76.9386 16.7352C76.2733 17.1382 75.5602 17.4314 74.7995 17.6148C74.0519 17.8113 73.2878 17.867 72.507 17.7819C71.7393 17.7099 70.9805 17.4977 70.2307 17.1454C69.494 16.8063 68.7911 16.3021 68.122 15.633L62.1983 9.70925C60.8075 8.31852 59.5291 7.53704 58.3631 7.36481C57.1715 7.19189 56.0105 7.67066 54.8801 8.80111L53.7993 9.88188L50.0404 6.12296L53.7113 2.45208Z" fill="url(#paint2_linear_9_89)"/>
<path d="M91.2808 54.2487C92.1379 55.1058 92.7704 56.0138 93.1781 56.9726C93.5734 57.9189 93.7574 58.8902 93.7302 59.8863C93.7037 60.857 93.4473 61.8339 92.9611 62.817C92.4879 63.7871 91.7987 64.7248 90.8934 65.6301L84.4383 72.0852C83.6117 72.9117 83.0157 73.7065 82.6503 74.4694C82.2718 75.2455 82.0918 75.997 82.1102 76.7239C82.1286 77.4508 82.3262 78.1601 82.7029 78.8517C83.0672 79.5309 83.5658 80.2 84.1987 80.8591L80.361 84.6967C79.6764 84.0646 78.9945 83.5664 78.3153 83.202C77.6106 82.8384 76.9009 82.6536 76.1865 82.6476C75.4595 82.6292 74.7146 82.8027 73.9517 83.1681C73.1756 83.5466 72.3743 84.1491 71.5477 84.9757L65.0926 91.4308C63.1771 93.3464 61.2363 94.3182 59.2702 94.3464C57.2786 94.3753 55.4256 93.5325 53.7113 91.8182L50.0404 88.1473L53.7796 84.4081L54.8604 85.4889C55.9908 86.6193 57.1519 87.0981 58.3434 86.9252C59.5226 86.7398 60.801 85.9583 62.1786 84.5807L68.1023 78.657C68.7715 77.9879 69.4937 77.4768 70.269 77.1238C71.0189 76.7715 71.7776 76.5594 72.5453 76.4874C73.3129 76.4154 74.0771 76.4711 74.8378 76.6545C75.5854 76.851 76.2791 77.1511 76.919 77.5548L76.9977 77.4761C76.5947 76.8107 76.3015 76.0976 76.1181 75.3369C75.9216 74.5894 75.8659 73.8252 75.951 73.0444C76.023 72.2767 76.2352 71.518 76.5874 70.7682C76.9266 70.0315 77.4308 69.3286 78.0999 68.6594L84.0236 62.7357C85.4144 61.345 86.1958 60.0666 86.3681 58.9005C86.541 57.709 86.0622 56.5479 84.9318 55.4175L83.851 54.3367L87.6099 50.5778L91.2808 54.2487Z" fill="url(#paint3_linear_9_89)"/>
<defs>
<linearGradient id="paint0_linear_9_89" x1="97.212" y1="-2.86484" x2="-2.78797" y2="97.1352" gradientUnits="userSpaceOnUse">
<stop stop-color="#FEF08A"/>
<stop offset="1" stop-color="#EAB308"/>
</linearGradient>
<linearGradient id="paint1_linear_9_89" x1="97.212" y1="-2.86484" x2="-2.78797" y2="97.1352" gradientUnits="userSpaceOnUse">
<stop stop-color="#FEF08A"/>
<stop offset="1" stop-color="#EAB308"/>
</linearGradient>
<linearGradient id="paint2_linear_9_89" x1="97.212" y1="-2.86484" x2="-2.78797" y2="97.1352" gradientUnits="userSpaceOnUse">
<stop stop-color="#FEF08A"/>
<stop offset="1" stop-color="#EAB308"/>
</linearGradient>
<linearGradient id="paint3_linear_9_89" x1="97.212" y1="-2.86484" x2="-2.78797" y2="97.1352" gradientUnits="userSpaceOnUse">
<stop stop-color="#FEF08A"/>
<stop offset="1" stop-color="#EAB308"/>
</linearGradient>
</defs>
</svg>
